HIERARCHY
ROOT Hips
{
	OFFSET 0.000000 0.000000 0.000000 
	CHANNELS 6 Xposition Yposition Zposition Zrotation Yrotation Xrotation
	JOINT LeftUpLeg
	{
		OFFSET 1.363060 -1.794630 0.839290 
		CHANNELS 3 Zrotation Yrotation Xrotation
		JOINT LeftLeg
		{
			OFFSET 2.448110 -6.726130 0.000000 
			CHANNELS 3 Zrotation Yrotation Xrotation
			JOINT LeftFoot
			{
				OFFSET 2.562200 -7.039590 0.000000 
				CHANNELS 3 Zrotation Yrotation Xrotation
				JOINT LeftToeBase
				{
					OFFSET 0.157640 -0.433110 2.322550 
					CHANNELS 3 Zrotation Yrotation Xrotation
					End Site
					{
						OFFSET 0.000000 0.000000 0.000000 
					}
				}
			}
		}
	}
	JOINT RightUpLeg
	{
		OFFSET -1.305520 -1.794630 0.839290 
		CHANNELS 3 Zrotation Yrotation Xrotation
		JOINT RightLeg
		{
			OFFSET -2.542530 -6.985550 0.000000 
			CHANNELS 3 Zrotation Yrotation Xrotation
			JOINT RightFoot
			{
				OFFSET -2.568260 -7.056230 0.000000 
				CHANNELS 3 Zrotation Yrotation Xrotation
				JOINT RightToeBase
				{
					OFFSET -0.164730 -0.452590 2.363150 
					CHANNELS 3 Zrotation Yrotation Xrotation
					End Site
					{
						OFFSET 0.000000 0.000000 0.000000 
					}
				}
			}
		}
	}
	JOINT Spine
	{
		OFFSET 0.028270 2.035590 -0.193380 
		CHANNELS 3 Zrotation Yrotation Xrotation
		JOINT Spine1
		{
			OFFSET 0.056720 2.048850 -0.042750 
			CHANNELS 3 Zrotation Yrotation Xrotation
			JOINT Neck1
			{
				OFFSET -0.054170 1.746240 0.172020 
				CHANNELS 3 Zrotation Yrotation Xrotation
				JOINT Head
				{
					OFFSET 0.104070 1.761360 -0.123970 
					CHANNELS 3 Zrotation Yrotation Xrotation
					End Site
					{
						OFFSET 0.000000 0.000000 0.000000 
					}
				}
			}
			JOINT LeftArm
			{
				OFFSET 3.362410 1.200890 -0.311210 
				CHANNELS 3 Zrotation Yrotation Xrotation
				JOINT LeftForeArm
				{
					OFFSET 4.983000 -0.000000 -0.000000 
					CHANNELS 3 Zrotation Yrotation Xrotation
					JOINT LeftHand
					{
						OFFSET 3.483560 -0.000000 -0.000000 
						CHANNELS 3 Zrotation Yrotation Xrotation
						JOINT LeftHandIndex1
						{
							OFFSET 0.715260 -0.000000 -0.000000 
							CHANNELS 3 Zrotation Yrotation Xrotation
							End Site
							{
								OFFSET 0.000000 0.000000 0.000000 
							}
						}
					}
				}
			}
			JOINT RightArm
			{
				OFFSET -3.136600 1.374050 -0.404650 
				CHANNELS 3 Zrotation Yrotation Xrotation
				JOINT RightForeArm
				{
					OFFSET -5.241900 -0.000000 -0.000000 
					CHANNELS 3 Zrotation Yrotation Xrotation
					JOINT RightHand
					{
						OFFSET -3.444170 -0.000000 -0.000000 
						CHANNELS 3 Zrotation Yrotation Xrotation
						JOINT RightHandIndex1
						{
							OFFSET -0.622530 -0.000000 -0.000000 
							CHANNELS 3 Zrotation Yrotation Xrotation
							End Site
							{
								OFFSET 0.000000 0.000000 0.000000 
							}
						}
					}
				}
			}
		}
	}
}
MOTION
Frames: 18
Frame Time: 0.041667
40.166470 17.351513 4.534498 -174.134565 10.244164 -170.544714 -38.174733 -18.549729 -3.975996 -10.935087 8.962013 18.966455 1.502985 -3.579028 -20.174399 8.475200 -16.457900 -54.257000 50.417432 19.860136 12.959266 14.320959 4.672754 -8.181026 -2.293516 -15.315965 -24.866422 -2.239800 9.348800 -26.892500 0.191815 3.782365 -5.074488 -5.623225 1.150932 -14.704148 0.327810 3.543112 19.659275 -1.729400 2.779300 14.497400 -83.485654 17.837167 14.607232 14.612719 -26.747169 -4.804882 1.162839 2.884903 4.435126 -7.125000 0.000000 0.000000 83.358850 -17.828022 40.319448 -25.202684 39.784136 -7.232048 -0.081880 -3.454217 -14.926311 7.125000 0.000000 0.000000 
40.159487 17.352910 4.561573 -174.204025 10.292590 -170.497693 -38.160364 -18.873721 -4.228818 -10.912661 9.104821 19.181828 1.459144 -3.272497 -19.877997 8.778400 -16.663000 -55.320700 50.249241 20.124957 12.617687 14.318354 4.476942 -7.849766 -2.308709 -15.065185 -25.270156 -2.498200 9.834700 -28.443000 0.122915 3.856215 -5.056852 -6.045087 1.103496 -14.729953 0.355750 3.680166 19.647094 -1.737900 2.870900 14.490400 -83.638454 17.716036 14.574948 14.719100 -26.875433 -4.852600 1.180100 2.883835 4.765199 -7.125000 0.000000 0.000000 83.476503 -17.724143 40.532035 -25.066333 39.680456 -7.142826 -0.066604 -3.449990 -14.435834 7.125000 0.000000 0.000000 
40.148313 17.355703 4.590475 -174.334805 10.369410 -170.542487 -38.392890 -19.048370 -4.031588 -11.025835 8.932150 18.753018 1.493203 -2.978155 -20.212797 8.706000 -16.614700 -55.067500 49.975722 20.397029 12.250244 14.319613 4.235712 -7.405984 -2.298184 -14.961927 -25.329207 -1.938700 8.737300 -24.976900 0.028534 4.000361 -4.990702 -6.524118 1.082960 -14.630285 0.369574 3.746719 19.585535 -1.739900 2.905400 14.462300 -83.588168 17.559115 14.866566 14.928023 -27.091844 -4.925744 1.184031 2.875762 4.927160 -7.125000 0.000000 0.000000 83.438299 -17.577475 40.812401 -25.032265 39.672541 -7.125736 -0.075525 -3.448213 -14.343325 7.125000 0.000000 0.000000 
40.134667 17.356670 4.619270 -174.534576 10.471965 -170.645686 -38.526568 -18.827580 -4.561176 -10.897038 9.319976 19.521324 1.481397 -3.220758 -20.076739 8.702000 -16.612100 -55.053600 49.680070 20.647490 11.926954 14.327545 3.990467 -6.930667 -2.278813 -15.011922 -25.286379 -0.745000 5.513600 -15.379300 0.073945 3.993189 -4.968877 -6.359697 1.085724 -14.799804 0.245492 3.872002 19.485691 -1.752100 2.909200 14.370700 -83.876321 17.721239 15.125273 15.201845 -27.412780 -5.020733 1.181918 2.884800 4.871523 -7.125000 0.000000 0.000000 82.899222 -17.592295 41.536873 -25.109194 39.652750 -7.155464 -0.089193 -3.435976 -14.716513 7.125000 0.000000 0.000000 
40.119733 17.357315 4.652684 -174.786022 10.499534 -170.756619 -38.571666 -18.179344 -5.268139 -10.719135 9.752910 20.406223 1.470672 -3.867791 -19.948780 8.758200 -16.649600 -55.250300 49.221037 20.854440 11.498836 14.305099 3.680115 -6.337043 -2.291115 -14.558058 -25.724220 -1.672400 8.147600 -23.163300 0.040688 4.040274 -4.937502 -6.548999 1.067677 -14.913822 0.153623 4.044653 19.407737 -1.803100 2.977200 14.328900 -83.727422 17.816955 15.677530 15.512830 -27.722287 -5.111444 1.142280 2.890808 4.414775 -7.125000 0.000000 0.000000 82.864109 -17.519725 41.378394 -24.968247 39.515338 -7.097184 -0.111229 -3.422858 -14.204418 7.125000 0.000000 0.000000 
40.100393 17.361183 4.688355 -175.111248 10.470056 -170.792935 -38.461685 -17.356667 -6.293705 -10.418061 10.324122 21.585053 1.483199 -5.950638 -20.007522 8.563000 -16.518100 -54.566100 48.492692 21.056599 10.840742 14.240829 3.269085 -5.578363 -2.343204 -13.608473 -26.719371 -1.536000 7.824200 -22.181300 0.014583 4.096985 -4.899447 -6.684146 1.069245 -14.966504 0.010009 4.293654 19.351033 -1.876000 3.072900 14.324300 -83.632863 17.797311 16.004240 15.774255 -27.974147 -5.177610 1.096532 2.898019 4.113660 -7.125000 0.000000 0.000000 82.704657 -17.447923 41.125815 -24.861933 39.385957 -7.051815 -0.124593 -3.403521 -13.573577 7.125000 0.000000 0.000000 
40.077186 17.368166 4.725853 -175.367430 10.346410 -170.702129 -38.094539 -16.425766 -7.667738 -10.018061 11.028778 23.073321 1.271749 -7.906642 -18.668478 8.985800 -16.798500 -56.040900 47.798573 21.290014 9.961617 14.199015 2.772741 -4.706424 -2.313056 -13.293702 -26.676014 -1.375400 7.421700 -20.970900 -0.034409 4.174392 -4.859368 -6.930853 1.063028 -14.924080 -0.102744 4.499388 19.252558 -1.917600 3.134100 14.295300 -83.470660 17.704374 16.397705 16.009012 -28.196314 -5.243256 1.054963 2.906322 3.564906 -7.125000 0.000000 0.000000 82.468873 -17.385035 41.053958 -24.867433 39.373399 -7.073718 -0.136573 -3.402317 -13.674233 7.125000 0.000000 0.000000 
40.048284 17.376547 4.765069 -175.651390 10.163923 -170.591871 -37.820157 -15.515988 -8.668133 -9.767831 11.386619 23.805255 1.090305 -10.057135 -17.776264 8.997000 -16.805800 -56.079800 46.987919 21.498370 8.977104 14.130392 2.250788 -3.807214 -2.303700 -12.758610 -26.930230 -1.000600 6.365500 -17.848600 -0.015224 4.136199 -4.877210 -6.918687 1.030384 -15.134994 -0.265968 4.832105 19.100983 -1.972600 3.244700 14.206700 -83.464476 17.909098 16.778264 16.320763 -28.512996 -5.342137 1.007050 2.926584 2.556452 -7.125000 0.000000 0.000000 81.980813 -17.455165 41.166606 -24.913239 39.325689 -7.101989 -0.144764 -3.390313 -13.772747 7.125000 0.000000 0.000000 
40.011431 17.382349 4.800955 -176.178951 10.014321 -170.546094 -37.944462 -14.612663 -9.488277 -9.591045 11.647327 24.302111 0.887170 -12.523556 -17.168850 8.606600 -16.547800 -54.719300 45.793911 21.687586 7.941388 14.036908 1.733232 -2.884445 -2.235204 -12.688802 -26.834425 -0.841300 5.850700 -16.352000 -0.034800 4.051697 -4.898618 -6.924501 0.981805 -15.367232 -0.358873 5.158745 18.927395 -1.976800 3.350200 14.094800 -83.412288 18.158717 16.966011 16.567277 -28.741243 -5.420096 0.975524 2.933606 2.018409 -7.125000 0.000000 0.000000 81.542885 -17.566197 41.188962 -24.947259 39.272796 -7.125007 -0.160671 -3.372447 -13.612553 7.125000 0.000000 0.000000 
39.972859 17.385465 4.837055 -176.753500 9.874788 -170.515813 -37.447118 -13.373726 -11.018723 -9.109848 12.317611 25.770704 0.710527 -15.457375 -16.600191 8.157500 -16.233900 -53.128100 44.400721 20.898972 6.814336 13.892062 1.240359 -1.990519 -2.107484 -12.085255 -26.011902 -0.856700 5.902600 -16.502100 -0.209359 4.091356 -4.866153 -7.456830 0.939335 -15.302840 -0.351805 5.194544 18.771278 -1.953100 3.336600 14.007700 -82.898994 18.146200 17.264064 16.721824 -28.820183 -5.463627 0.955751 2.914743 1.885870 -7.125000 0.000000 0.000000 81.614320 -17.545343 40.744526 -24.877414 39.252467 -7.126358 -0.190917 -3.371995 -13.265391 7.125000 0.000000 0.000000 
39.934932 17.388473 4.874875 -177.144281 9.591947 -170.463128 -36.094655 -11.894078 -13.216024 -8.388430 13.389059 28.260132 0.665918 -14.593461 -14.958636 9.581600 -17.167800 -58.080700 43.446252 21.036186 6.168073 13.789324 0.928657 -1.410248 -2.136112 -11.577399 -26.785332 -0.785200 5.657100 -15.792700 -0.211533 3.969111 -4.874959 -7.387233 0.890548 -15.478195 -0.567369 5.446226 18.645731 -2.045900 3.413200 13.948400 -82.918535 18.377472 17.103847 16.906011 -28.987527 -5.528219 0.944306 2.914323 1.820532 -7.125000 0.000000 0.000000 81.139011 -17.605567 40.875166 -24.895612 39.169628 -7.121177 -0.180257 -3.354234 -13.109386 7.125000 0.000000 0.000000 
39.897220 17.395027 4.914521 -177.344678 9.172323 -170.373720 -35.276971 -11.371361 -13.954787 -8.209597 13.542478 28.585545 0.732266 -14.922646 -14.943319 9.443200 -17.084600 -57.610500 42.834628 21.392263 5.626130 13.721256 0.644136 -0.906622 -2.180404 -11.197357 -27.480324 -0.591500 4.923900 -13.691800 -0.169130 3.840375 -4.878652 -7.287368 0.828398 -15.641017 -0.841947 5.837482 18.596481 -2.160200 3.548600 13.989900 -83.042640 18.546299 16.844162 17.111918 -29.188659 -5.604250 0.940754 2.912693 2.008244 -7.125000 0.000000 0.000000 80.561210 -17.657090 41.050692 -24.946646 39.093066 -7.120408 -0.149519 -3.338181 -13.197257 7.125000 0.000000 0.000000 
39.858755 17.403837 4.953630 -177.461274 8.717594 -170.260330 -33.928810 -9.939840 -14.875545 -7.929271 13.593734 28.842186 0.872839 -15.698144 -15.036977 9.137400 -16.895300 -56.564100 42.161805 21.535682 4.899264 13.632749 0.309657 -0.345641 -2.209239 -10.571961 -27.945635 -0.160800 2.583700 -7.121900 -0.132220 3.757038 -4.876860 -7.222029 0.786059 -15.729645 -1.026791 6.202761 18.611558 -2.215700 3.676600 14.084000 -83.017949 18.591719 16.943747 17.148987 -29.218141 -5.614642 0.938706 2.910846 2.128613 -7.125000 0.000000 0.000000 80.163738 -17.728122 40.906077 -24.921982 38.991981 -7.116363 -0.147219 -3.331139 -13.186519 7.125000 0.000000 0.000000 
39.814811 17.408028 4.983929 -177.774911 8.362496 -170.237699 -32.715865 -8.933135 -15.599097 -7.691045 13.665437 29.134975 1.052598 -15.479054 -15.162280 8.815800 -16.687700 -55.450700 41.164125 21.183094 4.133270 13.507181 -0.025612 0.280997 -2.167766 -9.936497 -27.845839 -0.045200 1.372500 -3.774500 -0.130147 3.655929 -4.852174 -7.163106 0.760648 -15.708204 -1.113895 6.399772 18.551478 -2.252500 3.749800 14.076800 -82.411000 18.850925 18.794320 17.121111 -29.183588 -5.580073 0.878399 2.928876 0.582901 -7.125000 0.000000 0.000000 79.935826 -17.773627 40.762894 -24.836642 38.879492 -7.108621 -0.179938 -3.329586 -13.199313 7.125000 0.000000 0.000000 
39.763776 17.408350 5.004880 -178.144422 8.044336 -170.340397 -31.372999 -7.906696 -16.135430 -7.389052 13.747163 29.612337 1.235800 -14.742843 -15.102422 8.554900 -16.512600 -54.537800 40.182500 20.716861 3.700675 13.389159 -0.229713 0.754229 -2.120795 -9.518791 -27.687897 -0.072400 1.736300 -4.777500 -0.147904 3.557808 -4.814839 -7.054287 0.744973 -15.675966 -1.140066 6.527731 18.449712 -2.246100 3.792900 13.999000 -82.335929 18.566557 18.849303 16.630956 -28.682862 -5.402934 0.901623 2.929834 0.799467 -7.125000 0.000000 0.000000 79.603683 -17.846849 40.825590 -24.766688 38.760354 -7.084592 -0.193274 -3.320450 -13.193535 7.125000 0.000000 0.000000 
39.711774 17.409854 5.020782 -178.358929 7.705074 -170.510154 -29.941639 -7.483741 -16.179863 -7.259373 13.600420 29.487158 1.614162 -13.570390 -16.326042 7.728500 -15.915900 -51.578900 39.630788 20.753576 3.862890 13.349322 -0.200675 0.832023 -2.201156 -9.665045 -28.586268 -0.199900 2.879300 -7.942900 -0.132146 3.517778 -4.759825 -6.831008 0.760890 -15.638840 -1.189759 6.739010 18.374778 -2.229200 3.864700 13.950700 -82.963266 17.266517 16.966149 15.342957 -27.389496 -4.983137 1.043713 2.910714 3.008191 -7.125000 0.000000 0.000000 79.142802 -17.944886 40.827699 -24.693920 38.609838 -7.045234 -0.192948 -3.301279 -12.933047 7.125000 0.000000 0.000000 
39.662888 17.410821 5.035287 -178.535021 7.393963 -170.668186 -28.231189 -6.663940 -16.873321 -6.926565 13.818090 30.316850 1.755654 -9.882462 -16.449754 8.292500 -16.330300 -53.609700 39.141856 21.041093 4.176664 13.302141 -0.078912 0.731906 -2.370549 -9.388066 -30.004930 -0.296700 3.502600 -9.681500 -0.105312 3.468669 -4.719156 -6.629569 0.774978 -15.624305 -1.282338 6.939831 18.297691 -2.280200 3.956500 13.904600 -83.116901 17.250932 16.523237 15.197759 -27.237768 -4.926962 1.058457 2.903103 3.434616 -7.125000 0.000000 0.000000 78.833911 -18.018643 40.839053 -24.582678 38.445533 -6.998070 -0.205660 -3.289186 -12.725338 7.125000 0.000000 0.000000 
39.613679 17.409854 5.046783 -178.735010 7.125922 -170.792251 -26.346951 -6.672473 -17.156575 -6.657430 13.888650 30.762737 1.813720 -7.570539 -16.563669 7.755200 -15.936300 -51.676200 38.577918 21.085785 4.334248 13.242725 -0.017724 0.747572 -2.227848 -9.479251 -29.024753 -0.575500 4.858100 -13.504300 -0.076552 3.364876 -4.707522 -6.346189 0.774818 -15.677286 -0.667067 6.248132 18.647477 -2.349600 1.841000 14.011100 -83.139930 17.460997 16.383242 15.195683 -27.232091 -4.920980 1.058468 2.898140 3.473752 -7.125000 0.000000 0.000000 78.698360 -18.030518 40.820262 -24.378370 38.209071 -6.899246 -0.204858 -3.284110 -12.464432 7.125000 0.000000 0.000000 
